<svg width="269" height="329" viewBox="0 0 269 329" fill="none" xmlns="http://www.w3.org/2000/svg">
<g clip-path="url(#clip0_68_24)">
<path d="M214.252 204.995C223.531 201.671 231.479 203.222 237.632 211.342C238.398 212.349 238.943 212.409 239.952 211.765C253.225 203.404 269.303 213.659 269 229.897C268.657 248.17 268.96 266.464 268.919 284.757C268.859 307.161 253.75 324.789 231.6 328.436C231.378 328.476 231.197 328.819 230.995 329.02C211.266 329.02 191.538 329.02 171.809 329.02C170.538 327.67 168.703 327.972 167.129 327.489C150.104 322.21 139.795 310.767 135.761 293.501C133.017 281.755 130.153 270.05 127.349 258.324C126.603 255 125.937 251.656 125.13 248.331C121.902 235.397 124.908 224.236 134.51 214.888C138.504 210.999 142.317 206.929 146.392 203.122C148.106 201.51 148.671 199.858 148.671 197.541C148.591 176.669 148.57 155.776 148.651 134.904C148.691 124.911 156.135 116.429 165.314 115.583C177.236 114.495 186.414 122.876 186.454 135.166C186.535 155.394 186.475 175.641 186.475 195.869C186.475 197.017 186.475 198.186 186.475 199.274C187.766 199.556 188.572 198.851 189.48 198.629C197.126 196.634 203.823 198.307 208.906 204.391C210.823 206.708 212.174 207.212 214.252 204.995ZM148.49 222.987C148.49 220.71 148.49 218.433 148.49 215.069C145.464 218.252 143.144 220.73 140.784 223.188C134.894 229.313 133.017 236.546 134.934 244.765C138.646 260.682 142.236 276.618 146.15 292.473C149.276 305.166 157.003 313.769 169.873 317.335C172.939 318.443 176.126 318.705 179.354 318.705C194.12 318.705 208.906 318.705 223.673 318.705C244.249 318.685 258.571 304.401 258.611 283.83C258.631 271.319 258.611 258.808 258.611 246.297C258.611 240.313 258.732 234.309 258.551 228.326C258.349 221.637 252.983 217.789 247.052 219.844C243.179 221.093 241.646 224.075 241.384 227.842C241.223 230.058 241.243 232.315 241.364 234.551C241.485 236.828 240.9 238.742 239.246 240.313C233.88 242.106 231.056 240.071 231.015 234.329C230.995 230.381 231.116 226.412 230.955 222.463C230.693 216.318 226.033 212.833 220.021 214.122C216.189 215.23 214.292 217.97 213.949 221.778C213.748 224.195 213.788 226.653 213.849 229.091C213.889 231.086 213.465 232.859 212.235 234.43C206.788 236.868 203.581 234.793 203.5 228.809C203.46 224.659 203.641 220.468 203.319 216.338C202.875 210.395 197.832 207.071 192.304 208.803C188.532 209.831 186.777 212.49 186.495 216.197C186.313 218.514 186.333 220.851 186.434 223.188C186.535 225.666 185.91 227.782 183.993 229.434C178.708 231.066 176.086 229.111 176.086 223.41C176.066 194.64 176.086 165.89 176.066 137.12C176.066 135.73 176.066 134.32 175.823 132.97C174.835 127.43 170.135 124.73 164.608 126.442C159.907 128.195 158.858 132.023 158.858 136.455C158.858 167.905 158.858 199.334 158.879 230.783C158.879 232.496 158.879 234.188 158.273 235.84C156.518 237.754 154.562 239.084 151.798 237.936C149.115 236.807 148.47 234.632 148.53 231.952C148.631 228.95 148.51 225.968 148.49 222.987Z" fill="#030202"/>
<path d="M115.003 257.74C113.833 262.092 112.724 263.039 108.306 263.039C77.8658 263.059 47.4053 263.099 16.9651 263.019C6.5964 262.978 0 256.189 0 245.793C0 169.658 0 93.5424 0 17.407C0 6.72909 6.75778 0 17.4694 0C79.0156 0 140.542 0 202.088 0C212.618 0 219.396 6.72909 219.396 17.2257C219.416 73.1134 219.396 129.001 219.396 184.909C219.396 189.341 218.327 190.731 214.252 191.658C212.598 191.517 211.226 190.731 210.036 189.623C208.947 187.891 209.088 185.957 209.088 184.022C209.088 128.9 209.088 73.7581 209.088 18.6359C209.088 11.9874 207.393 10.2951 200.736 10.2951C140.058 10.2951 79.3989 10.2951 18.7201 10.2951C12.0228 10.2951 10.3081 11.9673 10.3081 18.5957C10.3081 93.8446 10.3081 169.114 10.3081 244.363C10.3081 251.072 11.9421 252.703 18.599 252.703C48.192 252.703 77.7649 252.724 107.358 252.683C110.021 252.683 112.502 252.885 114.217 255.262C114.479 256.088 114.741 256.914 115.003 257.74Z" fill="#010101"/>
<path d="M115.004 257.74C114.741 256.914 114.479 256.088 114.217 255.282C115.71 253.912 114.439 252.502 114.116 251.233C110.465 236.888 112.865 223.793 121.903 211.986C125.816 206.869 130.839 202.82 135.216 198.145C136.084 197.219 137.092 196.433 137.032 194.922C136.871 190.752 137.314 186.581 136.749 182.431C137.052 180.94 136.568 179.55 136.104 178.16C137.395 177.374 136.992 176.085 136.992 174.976C137.012 165.769 137.012 156.582 136.992 147.375C136.992 146.448 137.254 145.421 136.467 144.635C137.072 142.902 136.709 141.271 136.023 139.659C138.162 137.12 137.153 133.917 137.456 131.116C139.332 114.092 155.954 101.057 173.524 104.764C186.939 107.605 197.711 119.955 197.509 133.353C197.368 143.185 197.489 153.016 197.489 162.868C197.489 169.819 197.489 176.77 197.489 183.72C197.489 184.949 197.166 186.762 198.861 186.843C202.794 187.044 206.123 189.382 209.996 189.664C211.186 190.772 212.537 191.557 214.212 191.698C212.578 192.867 214.434 193.995 214.313 195.224C213.99 198.468 214.212 201.752 214.212 205.016C212.134 207.232 210.782 206.748 208.846 204.411C203.742 198.327 197.065 196.655 189.42 198.649C188.512 198.891 187.705 199.596 186.414 199.294C186.414 198.186 186.414 197.037 186.414 195.889C186.414 175.661 186.475 155.414 186.394 135.186C186.354 122.897 177.175 114.515 165.253 115.603C156.075 116.449 148.631 124.931 148.591 134.924C148.51 155.797 148.53 176.689 148.611 197.561C148.611 199.878 148.046 201.53 146.331 203.142C142.257 206.95 138.444 211.019 134.45 214.908C124.868 224.256 121.862 235.417 125.07 248.352C125.897 251.656 126.562 255 127.289 258.345C123.274 257.136 119.119 257.901 115.004 257.74Z" fill="#D3DAEB"/>
<path d="M247.073 219.844C253.003 217.789 258.369 221.657 258.571 228.326C258.752 234.309 258.631 240.293 258.631 246.297C258.631 258.808 258.652 271.319 258.631 283.831C258.591 304.401 244.269 318.685 223.693 318.705C208.926 318.705 194.14 318.705 179.374 318.705C176.146 318.705 172.959 318.463 169.893 317.335C169.852 316.348 169.106 315.965 168.44 315.401C162.126 310.163 157.446 303.816 155.469 295.737C153.432 287.376 151.394 279.015 149.418 270.634C146.876 259.876 144.354 249.117 141.873 238.339C140.582 232.718 143.769 225.404 148.51 222.987C148.55 225.968 148.651 228.95 148.59 231.932C148.53 234.591 149.175 236.787 151.858 237.916C154.622 239.064 156.559 237.754 158.334 235.82C162.852 235.72 164.708 234.047 164.708 229.696C164.728 195.285 164.688 160.853 164.668 126.442C170.215 124.73 174.895 127.409 175.884 132.97C176.126 134.32 176.126 135.73 176.126 137.12C176.146 165.89 176.126 194.64 176.146 223.41C176.146 229.111 178.748 231.066 184.054 229.434C188.855 231.005 192.345 228.547 192.385 223.51C192.425 218.595 192.385 213.699 192.365 208.783C197.892 207.071 202.935 210.375 203.379 216.318C203.682 220.448 203.5 224.639 203.56 228.789C203.621 234.793 206.849 236.868 212.295 234.41C214.655 236.566 218.508 235.095 219.356 231.61C220.768 225.827 219.739 219.924 220.062 214.102C226.073 212.812 230.733 216.298 230.995 222.443C231.156 226.391 231.035 230.36 231.056 234.309C231.096 240.051 233.92 242.086 239.286 240.293C244.127 241.985 247.032 239.971 247.073 234.894C247.073 229.877 247.052 224.86 247.073 219.844Z" fill="#EEBF86"/>
<path d="M148.49 222.987C143.749 225.384 140.562 232.697 141.853 238.339C144.334 249.117 146.856 259.876 149.397 270.634C151.374 279.015 153.391 287.376 155.449 295.737C157.426 303.816 162.106 310.163 168.42 315.401C169.106 315.965 169.832 316.348 169.872 317.335C157.002 313.769 149.296 305.166 146.15 292.473C142.236 276.618 138.645 260.682 134.934 244.765C133.017 236.546 134.893 229.333 140.784 223.188C143.144 220.73 145.464 218.252 148.49 215.069C148.49 218.433 148.49 220.71 148.49 222.987Z" fill="#E3AD77"/>
<path d="M164.628 126.442C164.648 160.853 164.688 195.285 164.668 229.696C164.668 234.067 162.792 235.72 158.293 235.82C158.899 234.188 158.899 232.496 158.899 230.763C158.878 199.314 158.899 167.885 158.878 136.435C158.899 132.003 159.948 128.195 164.628 126.442Z" fill="#E5AE77"/>
<path d="M220.041 214.102C219.719 219.944 220.747 225.847 219.335 231.61C218.488 235.095 214.615 236.566 212.275 234.41C213.505 232.838 213.929 231.045 213.889 229.071C213.828 226.633 213.788 224.175 213.99 221.758C214.312 217.95 216.209 215.23 220.041 214.102Z" fill="#E3AD77"/>
<path d="M192.345 208.783C192.345 213.699 192.385 218.595 192.365 223.511C192.325 228.547 188.835 231.005 184.034 229.434C185.95 227.782 186.575 225.666 186.475 223.188C186.374 220.871 186.354 218.514 186.535 216.197C186.817 212.47 188.573 209.811 192.345 208.783Z" fill="#E3AD77"/>
<path d="M247.072 219.844C247.072 224.86 247.093 229.877 247.052 234.894C247.032 239.971 244.107 241.985 239.266 240.293C240.9 238.721 241.505 236.808 241.384 234.531C241.263 232.295 241.243 230.058 241.404 227.822C241.666 224.054 243.179 221.093 247.072 219.844Z" fill="#E3AD77"/>
<path d="M210.036 189.623C206.163 189.341 202.834 187.004 198.901 186.803C197.186 186.722 197.529 184.909 197.529 183.68C197.509 176.729 197.529 169.778 197.529 162.828C197.529 152.996 197.408 143.144 197.549 133.312C197.751 119.915 186.979 107.565 173.564 104.724C155.994 100.997 139.372 114.052 137.496 131.076C137.193 133.877 138.222 137.08 136.064 139.618C134.813 138.168 133.3 137.402 131.303 137.422C118.756 137.463 106.208 137.463 93.661 137.422C91.4218 137.422 89.687 138.188 88.638 140.203C86.7418 143.849 89.3642 147.657 93.9434 147.697C106.269 147.758 118.614 147.697 130.94 147.738C133.441 147.738 135.236 146.69 136.507 144.595C137.294 145.401 137.032 146.408 137.032 147.335C137.052 156.542 137.052 165.729 137.032 174.936C137.032 176.064 137.435 177.354 136.144 178.119C134.692 176.266 132.715 175.863 130.456 175.863C118.473 175.923 106.471 175.883 94.488 175.903C90.3325 175.903 88.1135 177.696 88.1135 180.96C88.1135 184.224 90.3729 186.178 94.4275 186.178C106.41 186.218 118.413 186.158 130.395 186.218C133.381 186.239 135.579 185.231 136.79 182.39C137.355 186.541 136.911 190.711 137.072 194.882C137.133 196.393 136.124 197.178 135.257 198.105C130.879 202.779 125.856 206.829 121.943 211.946C112.906 223.752 110.505 236.868 114.156 251.192C114.479 252.462 115.75 253.872 114.257 255.242C112.542 252.865 110.061 252.643 107.398 252.663C77.8054 252.683 48.2325 252.683 18.6395 252.683C11.9624 252.683 10.3486 251.051 10.3486 244.342C10.3486 169.093 10.3486 93.8244 10.3486 18.5755C10.3486 11.9672 12.0633 10.2749 18.7606 10.2749C79.4394 10.2749 140.098 10.2749 200.777 10.2749C207.434 10.2749 209.128 11.9672 209.128 18.6157C209.128 73.7379 209.128 128.88 209.128 184.002C209.088 185.956 208.947 187.891 210.036 189.623ZM70.2407 126.402C68.5664 121.204 65.1774 117.719 59.8922 116.127C59.4888 110.969 57.0681 109.197 51.6619 110.083C40.3855 111.937 32.2358 121.788 33.0225 132.587C33.8496 144.031 42.6246 152.694 53.78 153.077C65.4195 153.459 74.6787 145.481 76.2118 133.736C76.8371 128.9 75.1023 126.785 70.2407 126.402ZM59.9124 55.7265C59.4686 50.448 57.0277 48.7153 51.3795 49.7025C40.2846 51.6366 32.2761 61.4482 33.0225 72.1462C33.8294 83.4487 42.5641 92.2126 53.437 92.6357C65.2178 93.0991 74.5173 85.3022 76.1513 73.6371C76.8573 68.4795 75.2637 66.3842 70.2609 65.9611C68.4857 60.8438 65.2985 57.177 59.9124 55.7265ZM59.8922 176.528C59.4888 171.491 57.1286 169.698 51.9443 170.484C40.6477 172.216 32.4375 181.867 33.0023 192.746C33.6075 204.23 42.4632 213.074 53.8002 213.518C65.3388 213.981 74.6787 205.922 76.2118 194.176C76.8371 189.341 75.0821 187.206 70.2407 186.843C68.5462 181.645 65.1976 178.099 59.8922 176.528ZM137.012 76.9815C122.871 76.9815 108.71 76.9815 94.5687 76.9614C92.5918 76.9614 90.6956 77.0218 89.3037 78.7142C87.9522 80.3662 87.6496 82.1794 88.517 84.1135C89.6265 86.5916 91.7648 87.2766 94.3065 87.2766C122.81 87.2565 151.334 87.2766 179.838 87.2565C183.852 87.2565 186.293 85.3224 186.394 82.1794C186.495 78.8955 184.074 76.9614 179.777 76.9614C165.536 76.9815 151.274 76.9815 137.012 76.9815ZM126.078 65.2761C136.366 65.2761 146.654 65.2761 156.942 65.256C158.112 65.256 159.322 65.256 160.452 64.9941C163.135 64.3695 164.386 62.4757 164.285 59.8163C164.164 57.2979 162.792 55.6257 160.25 55.1422C159.322 54.9609 158.334 54.9609 157.366 54.9609C136.568 54.9609 115.77 54.9609 94.9924 54.9609C94.0241 54.9609 93.0356 54.9407 92.1077 55.1422C89.6063 55.7063 88.2144 57.3382 88.1135 59.8767C88.0127 62.4354 89.2634 64.2083 91.7244 64.9135C92.9348 65.256 94.2662 65.256 95.537 65.256C105.724 65.2963 115.891 65.2761 126.078 65.2761ZM112.26 115.442C106.249 115.442 100.257 115.422 94.246 115.442C90.2922 115.462 88.1539 117.235 88.0732 120.418C88.0127 123.702 90.272 125.717 94.3065 125.717C106.41 125.757 118.534 125.757 130.637 125.717C134.53 125.697 137.012 123.461 136.87 120.338C136.729 117.255 134.47 115.462 130.556 115.442C124.485 115.422 118.372 115.442 112.26 115.442ZM106.813 208.158C111.191 208.158 115.588 208.199 119.966 208.138C123.577 208.098 125.977 205.842 125.876 202.779C125.755 199.818 123.496 197.883 119.926 197.863C111.251 197.843 102.597 197.843 93.9232 197.863C90.3123 197.883 88.1741 199.757 88.0934 202.819C88.0329 206.023 90.2317 208.078 93.9636 208.118C98.2603 208.199 102.537 208.158 106.813 208.158Z" fill="#EFF2F9"/>
<path d="M136.77 182.39C135.559 185.211 133.36 186.218 130.375 186.218C118.392 186.158 106.39 186.218 94.4074 186.178C90.3527 186.158 88.0732 184.204 88.0934 180.96C88.0934 177.696 90.3124 175.903 94.4679 175.903C106.45 175.883 118.453 175.923 130.435 175.863C132.695 175.843 134.672 176.266 136.124 178.119C136.588 179.509 137.072 180.9 136.77 182.39Z" fill="#060606"/>
<path d="M136.507 144.595C135.257 146.69 133.441 147.738 130.94 147.738C118.614 147.697 106.269 147.758 93.9434 147.697C89.3642 147.677 86.7418 143.849 88.638 140.203C89.687 138.188 91.4218 137.402 93.661 137.422C106.208 137.443 118.756 137.463 131.303 137.422C133.3 137.422 134.813 138.188 136.064 139.619C136.749 141.23 137.112 142.862 136.507 144.595Z" fill="#040403"/>
<path d="M137.012 76.9816C151.274 76.9816 165.515 76.9816 179.777 76.9816C184.074 76.9816 186.495 78.9157 186.394 82.1996C186.293 85.3224 183.852 87.2565 179.838 87.2767C151.334 87.2968 122.81 87.2767 94.3064 87.2968C91.7647 87.2968 89.6062 86.632 88.5169 84.1337C87.6697 82.2198 87.9521 80.3864 89.3037 78.7343C90.6956 77.042 92.5918 76.9816 94.5687 76.9816C108.73 77.0017 122.871 76.9816 137.012 76.9816Z" fill="#040405"/>
<path d="M70.2404 186.843C75.0818 187.206 76.8368 189.341 76.2115 194.176C74.6784 205.922 65.3385 213.981 53.7999 213.518C42.4629 213.074 33.6274 204.23 33.0021 192.746C32.4171 181.867 40.6272 172.216 51.944 170.484C57.1283 169.698 59.4885 171.491 59.892 176.528C58.8026 179.308 56.8257 180.477 53.7595 180.738C47.264 181.282 42.6848 186.944 43.3909 193.028C44.0767 198.851 48.5752 203.061 54.284 203.222C60.1139 203.384 64.8342 199.636 65.7622 193.794C66.2665 190.731 66.6497 187.81 70.2404 186.843Z" fill="#040403"/>
<path d="M70.2607 65.9612C75.2634 66.3843 76.8772 68.4796 76.151 73.6372C74.5372 85.3023 65.2175 93.0791 53.4368 92.6358C42.5639 92.2127 33.8292 83.4488 33.0223 72.1464C32.2557 61.4483 40.2844 51.6367 51.3792 49.7026C57.0073 48.7154 59.4684 50.4682 59.9122 55.7266C58.7422 58.4666 56.7653 59.6351 53.7192 59.8769C47.3246 60.3402 42.6647 66.1023 43.4111 72.2068C44.1373 78.0293 48.6358 82.24 54.3244 82.3609C60.2753 82.5019 64.9755 78.6538 65.8227 72.5896C66.2463 69.5071 66.8717 66.888 70.2607 65.9612Z" fill="#040403"/>
<path d="M70.2404 126.402C75.102 126.785 76.8368 128.92 76.2115 133.736C74.6783 145.481 65.4192 153.459 53.7797 153.077C42.6243 152.694 33.8694 144.051 33.0222 132.587C32.2355 121.788 40.3851 111.937 51.6616 110.083C57.0678 109.197 59.4885 110.969 59.8919 116.127C58.7623 118.887 56.7652 120.056 53.7191 120.297C47.2841 120.801 42.6646 126.503 43.3908 132.607C44.0969 138.43 48.5953 142.64 54.284 142.782C60.255 142.943 64.9552 139.115 65.8025 133.03C66.2463 129.968 66.8716 127.349 70.2404 126.402Z" fill="#040403"/>
<path d="M126.078 65.2761C115.891 65.2761 105.704 65.2963 95.537 65.256C94.2662 65.256 92.9348 65.256 91.7244 64.9135C89.2634 64.2285 88.0127 62.4354 88.1136 59.8768C88.2144 57.3181 89.6063 55.6862 92.1077 55.1422C93.0357 54.9407 94.0241 54.9609 94.9924 54.9609C115.79 54.9609 136.588 54.9609 157.366 54.9609C158.334 54.9609 159.302 54.9609 160.25 55.1422C162.792 55.6257 164.184 57.2979 164.285 59.8163C164.406 62.4757 163.135 64.3494 160.452 64.9941C159.322 65.256 158.112 65.256 156.942 65.256C146.654 65.2963 136.366 65.2761 126.078 65.2761Z" fill="#070707"/>
<path d="M112.26 115.442C118.372 115.442 124.484 115.422 130.597 115.442C134.49 115.462 136.77 117.276 136.911 120.338C137.052 123.461 134.571 125.697 130.677 125.717C118.574 125.757 106.45 125.757 94.3468 125.717C90.3123 125.697 88.053 123.682 88.1135 120.418C88.174 117.235 90.3325 115.462 94.2863 115.442C100.257 115.422 106.269 115.442 112.26 115.442Z" fill="#060606"/>
<path d="M70.2405 186.843C66.6498 187.81 66.2666 190.731 65.7824 193.794C64.8545 199.636 60.1139 203.384 54.3043 203.222C48.5955 203.061 44.097 198.851 43.4111 193.028C42.7051 186.944 47.2842 181.282 53.7798 180.738C56.8258 180.477 58.8027 179.328 59.9122 176.528C65.1974 178.099 68.546 181.645 70.2405 186.843Z" fill="#FBD963"/>
<path d="M70.2405 126.402C66.8717 127.349 66.2463 129.988 65.8227 133.03C64.9553 139.115 60.2753 142.943 54.3042 142.782C48.6156 142.641 44.0969 138.43 43.4111 132.607C42.6849 126.523 47.3044 120.801 53.7394 120.298C56.7854 120.056 58.7825 118.887 59.9122 116.127C65.1772 117.699 68.5662 121.184 70.2405 126.402Z" fill="#D7DD68"/>
<path d="M70.2609 65.9612C66.8719 66.9081 66.2668 69.5272 65.823 72.5896C64.9757 78.6538 60.2755 82.5019 54.3246 82.3608C48.636 82.24 44.1375 78.0293 43.4113 72.2068C42.665 66.1224 47.3046 60.3604 53.7195 59.8768C56.7655 59.6552 58.7626 58.4666 59.9124 55.7266C65.2985 57.1771 68.4857 60.8439 70.2609 65.9612Z" fill="#B1E26D"/>
<path d="M106.813 208.158C102.537 208.158 98.2604 208.199 93.9636 208.138C90.2317 208.078 88.0127 206.043 88.0934 202.84C88.154 199.777 90.3124 197.904 93.9233 197.883C102.597 197.843 111.251 197.863 119.926 197.883C123.496 197.904 125.755 199.818 125.876 202.799C125.998 205.862 123.577 208.098 119.966 208.158C115.589 208.199 111.191 208.158 106.813 208.158Z" fill="#040403"/>
</g>
<defs>
<clipPath id="clip0_68_24">
<rect width="269" height="329" fill="white"/>
</clipPath>
</defs>
</svg>
