<svg width="284" height="284" viewBox="0 0 284 284" fill="none" xmlns="http://www.w3.org/2000/svg">
<g clip-path="url(#clip0_68_5)">
<path d="M0.0356445 212.973C0.0356445 174.722 0.0356445 136.436 0.0356445 98.1852C0.965854 97.7916 0.822745 96.7897 1.07319 96.0741C3.89959 87.9516 10.9477 82.7275 19.4627 82.5844C22.8973 82.5128 26.2962 82.4054 29.7308 82.6201C31.9132 82.7633 32.271 82.0118 32.271 80.0081C32.1636 69.846 32.1636 59.684 32.2352 49.522C32.3067 42.5445 37.566 37.2846 44.5068 37.1415C47.6552 37.0699 50.8036 37.0341 53.9162 37.1415C55.6335 37.2131 56.0986 36.7479 56.0986 34.9946C55.9913 26.9437 56.0629 18.9286 56.0629 10.8777C56.0629 3.936 59.9268 0 66.8318 0C116.92 0 167.008 0 217.096 0C224.037 0 227.937 3.90021 227.937 10.7703C227.937 18.6423 228.044 26.4785 227.865 34.3505C227.794 36.7479 228.545 37.3204 230.799 37.1415C233.196 36.9268 235.593 37.1057 237.99 37.1057C246.72 37.1415 251.765 42.1152 251.765 50.8101C251.765 60.6859 251.8 70.5975 251.729 80.4732C251.729 82.1908 252.158 82.6917 253.875 82.6201C257.382 82.477 260.888 82.5486 264.394 82.5844C275.199 82.7633 283.785 91.1362 283.857 101.978C284 123.519 283.893 145.059 283.928 166.564C283.928 169.248 282.783 170.965 280.1 171.502C276.737 171.073 275.592 169.856 275.556 166.493C275.521 157.261 275.413 147.993 275.628 138.762C275.7 136.042 274.912 135.47 272.301 135.47C216.667 135.541 161.069 135.506 105.435 135.47C74.023 135.47 42.6106 135.506 11.1982 135.398C8.87263 135.398 8.30019 136.007 8.30019 138.297C8.37175 161.591 8.33597 184.849 8.37175 208.143C8.37175 215.442 12.9512 220.13 20.214 220.273C24.1853 220.344 28.1566 220.165 32.1279 220.344C34.5965 220.452 35.3836 219.843 35.3836 217.195C35.2405 199.376 35.3478 181.521 35.312 163.702C35.312 160.231 36.0276 157.118 38.6035 154.613C41.2511 152.037 44.5068 151.5 48.0487 151.5C101.464 151.536 154.844 151.5 208.259 151.5C217.776 151.5 227.293 151.5 236.81 151.5C240.28 151.5 243.357 152.395 245.826 155.007C248.115 157.476 248.723 160.41 248.723 163.702C248.688 181.628 248.759 199.555 248.652 217.482C248.652 219.843 249.367 220.452 251.621 220.344C255.593 220.165 259.564 220.308 263.535 220.237C271.013 220.13 275.592 215.549 275.628 208.071C275.664 201.308 275.628 194.581 275.628 187.819C275.628 184.169 276.487 183.167 280.136 182.416C282.962 183.167 284.071 185.028 284.036 187.962C283.928 194.331 283.749 200.736 284.071 207.069C284.644 218.77 275.986 229.111 262.498 228.681C252.051 228.359 241.604 228.681 231.193 228.574C228.796 228.538 227.937 229.003 227.973 231.651C228.116 245.034 228.044 258.452 228.044 271.834C228.044 278.776 226.434 281.245 220.281 283.893C167.974 283.893 115.668 283.893 63.3614 283.893C57.7444 281.424 55.6693 277.094 56.0986 271.047C56.4206 266.753 56.1344 262.388 56.1702 258.058C56.1702 254.408 57.0288 253.335 60.535 252.512C63.433 253.156 64.5778 254.981 64.5063 257.915C64.399 262.71 64.6136 267.54 64.4347 272.335C64.3274 274.947 65.2934 275.591 67.7978 275.591C117.314 275.52 166.865 275.52 216.381 275.591C219.1 275.591 219.815 274.733 219.78 272.12C219.708 241.813 219.708 211.506 219.78 181.199C219.78 178.837 219.136 178.372 216.882 178.408C167.08 178.48 117.278 178.48 67.4758 178.408C64.7925 178.408 64.4347 179.267 64.4347 181.628C64.5421 199.734 64.4347 217.839 64.5421 235.981C64.5421 238.987 63.5761 240.955 60.6066 241.742C56.85 240.632 56.206 239.774 56.1702 235.874C56.1702 234.299 56.0271 232.725 56.206 231.15C56.4564 229.003 55.6335 228.574 53.5942 228.574C42.217 228.646 30.8757 228.753 19.4985 228.538C10.5899 228.359 3.93537 223.171 1.07319 214.762C0.75119 214.19 0.930076 213.259 0.0356445 212.973ZM253.41 91.0289C252.587 90.9931 251.765 90.8857 250.942 90.8857C174.092 90.8857 97.2067 90.8857 20.3571 90.8857C13.1659 90.8857 8.4433 95.6447 8.40753 102.908C8.37175 109.743 8.37175 116.577 8.40753 123.411C8.4433 127.562 7.83509 127.097 12.0926 127.097C92.9134 127.097 173.77 127.097 254.591 127.097C255.7 127.097 256.809 127.025 257.918 126.954C263.178 126.99 268.401 126.954 273.66 127.061C275.27 127.097 275.664 126.417 275.664 124.914C275.628 117.257 275.735 109.635 275.592 101.978C275.485 96.1457 270.834 91.1362 265.288 90.8857C261.353 90.8142 257.382 90.9931 253.41 91.0289ZM141.714 82.5486C166.758 82.5486 191.802 82.5128 216.846 82.5844C218.814 82.5844 219.708 82.3697 219.672 79.9723C219.565 57.1435 219.565 34.3147 219.672 11.486C219.672 8.8381 218.778 8.22981 216.309 8.22981C166.794 8.30137 117.242 8.30137 67.7262 8.22981C64.9356 8.22981 64.3274 9.16014 64.3632 11.7364C64.4347 34.2789 64.4347 56.8215 64.3632 79.3998C64.3632 81.8329 64.8283 82.6201 67.44 82.5844C92.1979 82.5128 116.956 82.5486 141.714 82.5486ZM142 159.837C111.053 159.837 80.0694 159.837 49.1221 159.837C48.2992 159.837 47.4405 159.801 46.6177 159.873C44.8288 160.016 43.7197 160.803 43.7197 162.843C43.7555 181.342 43.7555 199.805 43.7197 218.305C43.7197 219.915 44.3637 220.38 45.8663 220.344C48.3707 220.273 50.8751 220.165 53.3438 220.38C55.5978 220.559 56.0986 219.7 56.0986 217.553C56.0271 203.777 56.0629 190.001 56.0629 176.225C56.0629 171.502 57.2793 170.25 61.8946 170.25C115.31 170.25 168.726 170.25 222.141 170.25C226.756 170.25 227.973 171.502 227.973 176.225C227.973 190.073 228.008 203.956 227.937 217.804C227.937 219.7 228.438 220.487 230.406 220.344C232.516 220.201 234.663 220.13 236.774 220.344C239.493 220.63 240.387 219.843 240.352 216.909C240.208 199.627 240.28 182.344 240.28 165.061C240.28 160.088 240.065 159.873 235.164 159.873C204.109 159.837 173.055 159.837 142 159.837ZM55.9913 64.0136C55.9913 58.5748 55.9197 53.1002 56.0271 47.6613C56.0629 45.9796 55.5262 45.3713 53.8089 45.4429C50.8751 45.5502 47.9056 45.4071 44.9361 45.5144C42.217 45.586 40.6071 47.1246 40.5713 49.844C40.4997 60.1134 40.5713 70.347 40.4997 80.6164C40.4997 82.3339 41.2511 82.5844 42.6822 82.5486C46.3672 82.477 50.0881 82.4412 53.7731 82.5486C55.4546 82.5844 56.0271 82.0476 55.9913 80.3659C55.9555 74.9271 55.9913 69.4882 55.9913 64.0136ZM228.008 63.942C228.008 69.3809 228.044 74.8555 227.973 80.2943C227.937 81.9045 228.33 82.6201 230.119 82.5486C233.804 82.4412 237.525 82.4412 241.21 82.5486C242.856 82.5844 243.464 82.155 243.464 80.4017C243.393 70.347 243.464 60.2565 243.428 50.2018C243.428 47.0173 241.854 45.5502 238.563 45.5144C235.808 45.4786 233.017 45.6218 230.262 45.4786C228.33 45.3713 227.973 46.1943 227.973 47.9118C228.044 53.2433 228.008 58.6106 228.008 63.942Z" fill="#020202"/>
<path d="M141.714 82.5486C116.956 82.5486 92.1979 82.5128 67.4043 82.6202C64.7925 82.6202 64.2916 81.833 64.3274 79.4356C64.4347 56.8931 64.399 34.3505 64.3274 11.7722C64.3274 9.19595 64.9356 8.26562 67.6905 8.26562C117.206 8.33719 166.758 8.33719 216.274 8.26562C218.778 8.26562 219.672 8.87392 219.637 11.5218C219.529 34.3505 219.529 57.1793 219.637 80.0081C219.637 82.4055 218.778 82.6202 216.81 82.6202C191.802 82.5486 166.758 82.5486 141.714 82.5486Z" fill="#D2E0F4"/>
<path d="M60.4277 252.584C60.4277 248.97 60.4635 245.356 60.4635 241.742C63.433 240.955 64.4348 238.987 64.399 235.981C64.3275 217.875 64.399 199.77 64.2917 181.628C64.2917 179.267 64.6495 178.408 67.3327 178.408C117.135 178.515 166.937 178.48 216.739 178.408C218.993 178.408 219.637 178.837 219.637 181.199C219.529 211.506 219.529 241.813 219.637 272.12C219.637 274.733 218.957 275.627 216.238 275.591C166.722 275.52 117.17 275.52 67.6547 275.591C65.1503 275.591 64.1843 274.947 64.2917 272.335C64.4706 267.54 64.2559 262.71 64.3632 257.915C64.5063 255.053 63.3615 253.228 60.4277 252.584ZM83.683 236.804C83.683 242.35 83.6472 247.896 83.683 253.442C83.7187 258.416 86.402 261.171 91.3751 261.171C102.287 261.207 113.163 261.207 124.076 261.171C129.013 261.171 131.875 258.416 131.875 253.478C131.947 242.493 131.947 231.508 131.875 220.487C131.839 215.657 129.049 212.937 124.254 212.937C113.271 212.902 102.287 212.902 91.2677 212.937C86.402 212.937 83.7187 215.621 83.683 220.452C83.6472 225.89 83.683 231.365 83.683 236.804ZM142 201.308C159.352 201.308 176.74 201.308 194.092 201.308C195.022 201.308 195.988 201.416 196.846 201.201C199.065 200.664 200.424 199.269 200.245 196.871C200.102 194.617 198.743 193.365 196.596 193.043C195.88 192.935 195.129 193.007 194.378 193.007C159.459 193.007 124.541 193.007 89.622 193.007C88.8707 193.007 88.1193 192.935 87.4038 193.043C85.2214 193.365 83.8619 194.617 83.7187 196.871C83.5756 199.269 84.8636 200.7 87.1176 201.237C88.012 201.451 88.9422 201.344 89.8724 201.344C107.26 201.308 124.612 201.308 142 201.308ZM170.55 221.275C178.779 221.275 186.972 221.275 195.201 221.275C198.421 221.275 200.281 219.7 200.281 217.088C200.281 214.44 198.492 212.973 195.201 212.973C178.958 212.973 162.679 212.973 146.436 212.973C143.073 212.973 141.284 214.369 141.213 216.981C141.141 219.664 143.037 221.275 146.436 221.31C154.486 221.275 162.5 221.275 170.55 221.275ZM170.836 252.834C162.536 252.834 154.2 252.798 145.9 252.834C142.787 252.834 140.998 254.659 141.249 257.378C141.463 259.812 143.252 261.135 146.436 261.135C162.608 261.135 178.743 261.135 194.915 261.135C198.421 261.135 200.281 259.668 200.281 256.985C200.281 254.265 198.456 252.834 194.95 252.834C186.9 252.834 178.886 252.834 170.836 252.834ZM170.55 232.904C162.5 232.904 154.486 232.904 146.436 232.904C143.073 232.904 141.284 234.299 141.213 236.875C141.141 239.559 143.037 241.205 146.436 241.205C162.679 241.205 178.958 241.205 195.201 241.205C198.421 241.205 200.281 239.631 200.281 237.019C200.281 234.371 198.492 232.904 195.201 232.904C186.972 232.904 178.779 232.904 170.55 232.904Z" fill="#D2E0F4"/>
<path d="M280.136 171.502C280.136 175.152 280.1 178.802 280.1 182.451C276.487 183.203 275.628 184.205 275.592 187.854C275.592 194.617 275.628 201.344 275.592 208.107C275.557 215.585 271.013 220.165 263.5 220.273C259.528 220.344 255.557 220.201 251.586 220.38C249.332 220.487 248.616 219.879 248.616 217.517C248.724 199.591 248.652 181.664 248.688 163.737C248.688 160.481 248.08 157.511 245.79 155.042C243.357 152.43 240.244 151.536 236.774 151.536C227.257 151.536 217.741 151.536 208.224 151.536C154.808 151.536 101.429 151.536 48.0132 151.536C44.4712 151.536 41.2155 152.073 38.568 154.649C35.992 157.154 35.2765 160.267 35.2765 163.737C35.3123 181.557 35.2407 199.412 35.348 217.231C35.3838 219.879 34.5609 220.487 32.0923 220.38C28.121 220.165 24.1498 220.38 20.1785 220.308C12.9157 220.165 8.3362 215.478 8.3362 208.178C8.30043 184.884 8.37198 161.626 8.26465 138.332C8.26465 136.042 8.83708 135.434 11.1626 135.434C42.5751 135.506 73.9875 135.47 105.4 135.506C161.034 135.506 216.632 135.541 272.265 135.506C274.913 135.506 275.664 136.078 275.592 138.798C275.414 148.029 275.521 157.261 275.521 166.528C275.592 169.856 276.737 171.073 280.136 171.502Z" fill="#BDBDBD"/>
<path d="M257.883 126.99C256.774 127.025 255.665 127.133 254.555 127.133C173.735 127.133 92.878 127.133 12.0571 127.133C7.79961 127.133 8.40783 127.598 8.37205 123.447C8.33627 116.613 8.33627 109.779 8.37205 102.944C8.40783 95.6805 13.1304 90.9215 20.3217 90.9215C97.1712 90.9215 174.057 90.9215 250.906 90.9215C251.729 90.9215 252.552 91.0289 253.375 91.0646C254.77 93.8198 257.346 96.0383 257.275 99.4734C254.269 97.6127 251.049 96.9686 247.507 97.076C241.711 97.2191 235.88 97.076 230.084 97.1118C223.036 97.1475 217.848 102.264 217.812 108.991C217.812 115.79 222.964 120.871 229.976 120.907C236.166 120.942 242.32 120.835 248.509 120.942C251.658 121.014 254.52 120.334 257.131 118.581C258.598 121.3 257.525 124.199 257.883 126.99Z" fill="#828282"/>
<path d="M142 159.837C173.055 159.837 204.109 159.837 235.164 159.837C240.065 159.837 240.28 160.052 240.28 165.026C240.28 182.308 240.209 199.591 240.352 216.873C240.387 219.807 239.493 220.595 236.774 220.308C234.663 220.094 232.516 220.13 230.406 220.308C228.402 220.452 227.937 219.664 227.937 217.768C228.008 203.92 227.973 190.037 227.973 176.189C227.973 171.466 226.756 170.214 222.141 170.214C168.726 170.214 115.31 170.214 61.8946 170.214C57.2793 170.214 56.0629 171.466 56.0629 176.189C56.0629 189.965 56.0271 203.741 56.0987 217.517C56.0987 219.664 55.5978 220.523 53.3438 220.344C50.8752 220.165 48.3708 220.237 45.8664 220.308C44.3637 220.344 43.7197 219.915 43.7197 218.269C43.7555 199.77 43.7555 181.306 43.7197 162.807C43.7197 160.803 44.8288 159.98 46.6177 159.837C47.4406 159.766 48.2634 159.801 49.1221 159.801C80.0694 159.837 111.053 159.837 142 159.837Z" fill="#585858"/>
<path d="M257.346 99.4733C257.418 96.0383 254.842 93.8198 253.446 91.0646C257.418 91.0288 261.353 90.8141 265.324 90.993C270.834 91.2435 275.521 96.253 275.628 102.085C275.771 109.743 275.628 117.364 275.7 125.022C275.7 126.524 275.306 127.168 273.696 127.168C268.437 127.061 263.213 127.097 257.954 127.061C257.596 124.27 258.67 121.372 257.31 118.652C258.527 117.293 259.922 116.112 260.709 114.394C263.106 109.278 262.069 104.519 257.346 99.4733Z" fill="#585858"/>
<path d="M55.9914 64.0136C55.9914 69.4525 55.9199 74.9271 56.0272 80.3659C56.063 82.0834 55.4905 82.6202 53.809 82.5486C50.124 82.4413 46.4031 82.477 42.7181 82.5486C41.287 82.5844 40.5356 82.2981 40.5356 80.6164C40.6072 70.347 40.5356 60.1134 40.6072 49.8441C40.6072 47.1246 42.2172 45.586 44.972 45.5145C47.9415 45.4429 50.8753 45.586 53.8448 45.4429C55.5621 45.3713 56.063 45.9438 56.063 47.6614C55.9556 53.136 55.9914 58.5748 55.9914 64.0136Z" fill="#585858"/>
<path d="M228.009 63.9421C228.009 58.5748 228.08 53.2433 227.973 47.8761C227.937 46.1585 228.331 45.3355 230.263 45.4429C233.017 45.586 235.808 45.4429 238.563 45.4787C241.819 45.5145 243.393 46.9815 243.429 50.1661C243.464 60.2208 243.393 70.3112 243.464 80.3659C243.464 82.1192 242.856 82.5844 241.21 82.5128C237.525 82.4055 233.805 82.4055 230.12 82.5128C228.331 82.5844 227.937 81.8687 227.973 80.2586C228.044 74.8555 228.009 69.4167 228.009 63.9421Z" fill="#585858"/>
<path d="M83.6829 236.804C83.6829 231.365 83.6471 225.89 83.6829 220.452C83.7187 215.621 86.4377 212.973 91.2677 212.937C102.251 212.902 113.235 212.902 124.254 212.937C129.048 212.937 131.839 215.657 131.875 220.487C131.946 231.472 131.946 242.457 131.875 253.478C131.839 258.38 129.013 261.171 124.075 261.171C113.163 261.207 102.287 261.207 91.375 261.171C86.402 261.171 83.7187 258.416 83.6829 253.442C83.6829 247.896 83.6829 242.35 83.6829 236.804ZM91.9832 237.054C91.9832 241.563 92.0548 246.107 91.9474 250.616C91.9117 252.476 92.5557 252.906 94.3087 252.906C103.36 252.834 112.412 252.834 121.464 252.906C123.109 252.906 123.718 252.476 123.682 250.759C123.61 241.634 123.61 232.474 123.682 223.35C123.682 221.561 123.038 221.203 121.428 221.239C112.376 221.31 103.325 221.31 94.273 221.239C92.5199 221.239 91.8759 221.668 91.9117 223.529C92.0906 228.002 91.9832 232.546 91.9832 237.054Z" fill="#020202"/>
<path d="M142 201.308C124.648 201.308 107.26 201.308 89.9084 201.308C88.9782 201.308 88.0122 201.416 87.1535 201.201C84.9353 200.664 83.6116 199.269 83.7547 196.836C83.8978 194.581 85.2573 193.329 87.4397 193.007C88.1553 192.9 88.9066 192.971 89.6579 192.971C124.577 192.971 159.495 192.971 194.414 192.971C195.165 192.971 195.916 192.9 196.632 193.007C198.814 193.329 200.138 194.581 200.281 196.836C200.424 199.233 199.101 200.664 196.882 201.165C195.988 201.38 195.058 201.272 194.128 201.272C176.74 201.308 159.352 201.308 142 201.308Z" fill="#020202"/>
<path d="M170.55 221.275C162.5 221.275 154.486 221.275 146.436 221.275C143.038 221.275 141.141 219.664 141.213 216.945C141.284 214.333 143.073 212.937 146.436 212.937C162.679 212.937 178.958 212.937 195.201 212.937C198.492 212.937 200.281 214.44 200.281 217.052C200.281 219.664 198.421 221.203 195.201 221.239C186.972 221.275 178.779 221.275 170.55 221.275Z" fill="#020202"/>
<path d="M170.837 252.834C178.887 252.834 186.901 252.834 194.951 252.834C198.492 252.834 200.317 254.301 200.281 256.985C200.281 259.668 198.421 261.135 194.915 261.135C178.743 261.135 162.608 261.135 146.437 261.135C143.252 261.135 141.463 259.812 141.249 257.378C140.998 254.695 142.787 252.87 145.9 252.834C154.236 252.834 162.536 252.834 170.837 252.834Z" fill="#020202"/>
<path d="M170.55 232.904C178.779 232.904 186.972 232.904 195.201 232.904C198.492 232.904 200.281 234.406 200.281 237.018C200.281 239.631 198.421 241.205 195.201 241.205C178.958 241.241 162.679 241.205 146.436 241.205C143.038 241.205 141.141 239.559 141.213 236.875C141.284 234.263 143.073 232.904 146.436 232.904C154.486 232.904 162.5 232.904 170.55 232.904Z" fill="#020202"/>
<path d="M257.346 99.4734C262.069 104.519 263.106 109.278 260.673 114.359C259.85 116.076 258.491 117.257 257.274 118.617C254.663 120.37 251.801 121.05 248.652 120.978C242.463 120.871 236.309 120.978 230.12 120.942C223.107 120.907 217.919 115.826 217.955 109.027C217.955 102.264 223.179 97.1834 230.227 97.1476C236.023 97.1118 241.854 97.2549 247.65 97.1118C251.121 96.9687 254.341 97.577 257.346 99.4734ZM239.887 112.57C242.999 112.57 246.148 112.605 249.26 112.57C252.051 112.534 253.589 111.246 253.446 108.956C253.303 106.451 251.729 105.449 249.368 105.449C242.999 105.449 236.667 105.449 230.298 105.449C227.973 105.449 226.363 106.451 226.22 108.991C226.112 111.246 227.615 112.57 230.442 112.605C233.626 112.605 236.738 112.57 239.887 112.57Z" fill="#020202"/>
<path d="M91.9835 237.054C91.9835 232.546 92.055 228.002 91.9477 223.493C91.9119 221.632 92.5559 221.203 94.309 221.203C103.361 221.275 112.412 221.275 121.464 221.203C123.074 221.203 123.718 221.561 123.718 223.314C123.646 232.438 123.646 241.599 123.718 250.723C123.718 252.476 123.145 252.906 121.5 252.87C112.448 252.798 103.396 252.798 94.3448 252.87C92.5917 252.87 91.9119 252.476 91.9835 250.58C92.0908 246.107 91.9835 241.599 91.9835 237.054Z" fill="#828282"/>
<path d="M239.887 112.569C236.774 112.569 233.626 112.605 230.513 112.569C227.722 112.534 226.184 111.246 226.291 108.955C226.435 106.451 228.009 105.449 230.37 105.413C236.738 105.413 243.071 105.413 249.439 105.413C251.765 105.413 253.375 106.415 253.518 108.92C253.661 111.174 252.123 112.498 249.332 112.534C246.148 112.605 242.999 112.569 239.887 112.569Z" fill="#828282"/>
</g>
<defs>
<clipPath id="clip0_68_5">
<rect width="284" height="284" fill="white"/>
</clipPath>
</defs>
</svg>
