<svg width="313" height="282" viewBox="0 0 313 282" fill="none" xmlns="http://www.w3.org/2000/svg">
<g clip-path="url(#clip0_68_47)">
<path d="M276.693 52.8591C278.974 58.973 282.868 64.3054 285.241 70.4194C288.742 79.4293 291.668 88.5543 292.774 98.2078C292.912 99.518 293.258 100.805 293.488 102.092C270.819 103.724 248.149 105.333 225.479 107.011C224.004 107.126 222.76 106.988 221.954 105.747C216.517 97.4264 208.477 95.9783 199.399 97.1046C198.57 97.2195 197.694 97.0356 196.842 97.1276C194.815 97.4034 193.594 96.7138 193.294 94.5763C191.981 85.7961 186.636 80.1878 178.964 76.3034C177.144 75.384 175.462 74.1199 173.804 72.9017C171.362 71.1319 168.989 71.0399 166.362 72.5569C155.119 79.0386 143.854 85.4973 132.542 91.8411C129.869 93.3351 128.74 95.3577 128.786 98.2998C128.856 103.517 128.717 108.735 128.833 113.952C128.879 116.113 128.533 116.894 126.022 116.412C107.315 112.895 88.4461 111.7 69.4164 112.412C67.9649 112.458 66.5135 112.343 65.0391 112.297C65.3386 85.6812 74.2314 62.2138 91.0956 41.7115C109.642 19.1405 133.694 5.69449 162.4 1.37337C184.033 -1.89045 205.343 0.568907 225.571 9.76278C236.676 14.8194 246.951 21.0253 255.844 29.4147C256.281 29.8284 256.857 30.0583 257.364 30.38C254.922 34.1265 253.425 38.0799 254.415 42.6309C256.604 52.7441 266.05 57.0882 276.693 52.8591ZM239.233 64.7421C239.256 62.1449 237.09 59.8924 234.441 59.7774C231.607 59.6625 229.28 61.8461 229.257 64.6502C229.234 67.3164 231.331 69.5 234.003 69.5919C236.791 69.7068 239.21 67.4543 239.233 64.7421ZM129.501 29.9663C126.782 30.0123 124.755 32.0809 124.709 34.7931C124.686 37.6662 126.828 39.8267 129.708 39.7578C132.565 39.7118 134.638 37.4593 134.477 34.5862C134.339 31.874 132.219 29.9203 129.501 29.9663Z" fill="#DFF5C5"/>
<path d="M64.4103 112.574C65.8653 112.62 67.3434 112.735 68.7983 112.689C87.8516 111.976 106.789 113.172 125.542 116.692C128.083 117.175 128.406 116.393 128.36 114.231C128.244 109.008 128.383 103.786 128.314 98.5637C128.268 95.596 129.399 93.5945 132.078 92.0991C143.418 85.7495 154.711 79.2848 165.981 72.7972C168.614 71.2788 170.993 71.3478 173.441 73.1423C175.104 74.3616 176.79 75.6269 178.614 76.5471C186.305 80.4121 191.663 86.0485 192.979 94.8368C193.303 96.9763 194.527 97.6435 196.536 97.3904C197.367 97.2754 198.245 97.4594 199.1 97.3674C208.199 96.2401 216.259 97.7125 221.709 106.018C222.518 107.26 223.788 107.398 225.243 107.283C247.968 105.604 270.694 103.993 293.419 102.36C296.19 102.659 297.645 104.315 298.592 106.823C303.396 119.729 308.246 132.658 313.188 145.542C314.481 148.924 313.812 151.385 310.763 153.318C307.784 155.204 305.012 157.436 301.918 159.115C298.777 160.818 296.975 163.187 296.56 166.684C296.467 167.397 296.283 168.11 296.167 168.824C294.828 177.612 290.925 184.698 284.112 190.817C273.996 199.904 264.735 209.935 254.989 219.482C253.419 221.024 253.349 222.105 254.25 224.061C258.222 232.711 262.818 240.832 270.301 247.112C273.881 250.126 273.349 253.508 269.469 256.108C259.77 262.595 250.001 268.968 240.301 275.479C237.599 277.296 235.197 277.25 232.656 275.203C224.596 268.715 216.467 262.342 208.43 255.832C205.173 253.186 204.966 251.231 207.252 247.665C208.591 245.571 210 243.501 211.686 240.947C200.554 240.947 190 240.993 179.446 240.901C177.714 240.901 177.552 242.097 177.113 243.155C174.665 249.206 172.148 255.257 169.838 261.376C168.891 263.907 167.436 265.701 165.081 267.059C157.506 271.453 150.046 276.008 142.517 280.448C137.967 283.14 135.612 282.403 133.187 277.664C130.277 271.936 127.552 266.115 124.48 260.479C122.517 256.867 123.141 254.221 126.074 251.484C131.039 246.813 135.727 241.89 140.6 237.128C141.778 235.978 142.402 235.126 141.224 233.493C137.482 228.271 133.926 222.933 130.3 217.642C127.99 212.029 124.48 208.486 117.783 210.349C111.824 210.28 105.842 210.234 99.884 210.142C98.429 210.119 97.3898 210.924 96.2581 211.614C84.3874 218.999 72.4935 226.315 60.6458 233.746C58.4056 235.149 56.1424 235.886 53.4634 235.863C42.8628 235.771 32.2623 235.794 21.6386 235.84C19.4908 235.863 17.574 235.426 15.7956 234.206C11.3614 231.192 6.85794 228.294 2.44682 225.28C-1.64097 222.496 -1.87191 219.621 1.68469 216.032C5.17202 212.466 8.68243 208.923 12.3083 205.495C13.6478 204.23 13.9712 203.148 13.2783 201.4C12.1005 198.478 11.3614 195.395 10.2067 192.474C9.21361 189.92 9.65242 187.826 11.246 185.687C14.8719 180.81 18.2899 175.794 21.962 170.94C23.3246 169.123 23.6248 167.489 23.0243 165.258C20.2991 155.319 17.7818 145.335 15.2183 135.373C14.2021 131.393 15.1721 129.507 19.0289 128.057C32.1006 123.134 45.2185 118.326 58.2902 113.356C60.3456 112.597 62.4011 112.942 64.4103 112.574ZM90.7615 164.429C109.168 164.429 127.575 164.383 145.981 164.475C148.545 164.498 149.307 163.762 149.238 161.209C149.076 154.537 149.168 147.865 149.192 141.171C149.215 136.017 150.693 134.545 155.981 134.545C183.049 134.545 210.093 134.545 237.16 134.545C242.564 134.545 244.042 136.017 244.065 141.516C244.111 148.187 244.158 154.882 244.042 161.554C243.996 163.785 244.712 164.452 246.952 164.452C259.377 164.36 271.825 164.383 284.25 164.452C286.121 164.452 287.368 164.084 287.507 162.06C287.83 157.022 290.786 153.962 295.036 151.753C296.86 150.81 298.43 149.407 300.232 148.394C302.264 147.267 302.749 146.025 301.825 143.724C299.054 136.868 296.583 129.898 293.973 122.973C292.726 119.683 292.31 115.381 289.955 113.402C287.322 111.194 282.934 113.264 279.331 113.472C263.765 114.438 248.199 115.381 232.679 116.761C219.885 117.889 219.862 118.188 210.716 109.146C209.192 107.651 207.668 107.03 205.566 107.099C201.294 107.237 197.044 107.145 192.772 107.145C186.882 107.145 186.397 106.777 184.504 101.094C183.51 98.1036 182.471 95.1358 181.547 92.1221C181.132 90.7647 180.462 89.7525 179.261 88.9703C176.49 87.1988 173.718 85.4274 171.039 83.5179C169.723 82.5747 168.707 82.7127 167.39 83.4719C158.337 88.6942 149.261 93.8935 140.115 98.9778C138.522 99.852 138.337 101.002 138.337 102.521C138.383 108.824 138.383 115.151 138.337 121.455C138.314 126.447 136.189 128.333 131.247 127.482C109.468 123.778 87.5514 121.754 65.4265 122.697C63.0708 122.789 60.8537 123.042 58.6597 123.87C48.7751 127.597 38.8905 131.439 28.9366 134.959C26.1421 135.948 25.9574 137.306 26.6271 139.744C28.5902 146.876 30.5302 154.008 32.2161 161.209C32.8396 163.854 34.0406 164.521 36.6503 164.498C54.6874 164.36 72.7245 164.429 90.7615 164.429ZM90.2996 174.598C71.7545 174.598 53.2324 174.598 34.6872 174.621C33.417 174.621 31.962 174.161 30.969 175.518C25.1722 183.501 16.5578 190.748 24.0405 202.159C24.1098 202.251 24.0867 202.389 24.1329 202.504C25.2645 205.196 24.5948 207.427 22.5163 209.429C19.537 212.305 16.6271 215.226 13.7402 218.194C13.2552 218.7 11.8233 219.436 12.9319 220.127C16.3499 222.266 19.0289 225.809 23.6479 225.786C33.163 225.74 42.6781 225.74 52.17 225.809C53.9714 225.832 55.4264 225.257 56.9276 224.337C68.8907 216.837 80.9 209.406 92.8632 201.929C94.5491 200.871 96.2119 200.112 98.2905 200.135C107.921 200.204 117.552 200.204 127.182 200.135C129.769 200.112 131.547 201.147 132.956 203.263C139.399 212.972 145.889 222.68 152.425 232.343C154.365 235.218 154.18 237.749 151.709 240.188C148.429 243.432 145.15 246.698 141.87 249.965C133.88 257.925 133.926 257.879 139.33 267.795C140.369 269.704 141.155 269.796 142.887 268.715C148.037 265.494 153.279 262.388 158.545 259.352C159.931 258.546 160.623 257.465 161.178 256.062C163.926 249.068 166.836 242.12 169.584 235.126C170.577 232.596 172.24 230.962 174.965 230.962C190.208 230.916 205.451 230.824 220.693 231.008C225.497 231.054 227.46 235.126 224.92 239.245C223.003 242.35 220.947 245.364 218.846 248.332C217.783 249.804 217.783 250.724 219.307 251.898C224.712 256.062 230.024 260.318 235.312 264.62C236.421 265.54 237.229 265.678 238.476 264.827C244.827 260.525 251.201 256.269 257.645 252.105C259.377 250.977 259.446 250.08 257.899 248.861C253.626 245.525 251.363 240.809 249.123 236.093C247.345 232.366 245.428 228.708 243.603 225.027C241.155 220.127 241.317 219.137 245.312 215.18C257.645 202.895 269.978 190.61 282.287 178.325C283.119 177.497 284.389 176.646 283.788 175.288C283.234 174.046 281.848 174.667 280.855 174.667C269.77 174.621 258.661 174.759 247.576 174.575C244.55 174.529 243.95 175.587 244.019 178.325C244.181 184.882 244.158 191.438 244.042 197.995C243.973 202.573 242.356 204.253 237.806 204.276C210.254 204.322 182.702 204.345 155.127 204.276C150.762 204.276 149.215 202.55 149.168 198.225C149.122 191.553 148.984 184.859 149.238 178.187C149.353 175.219 148.314 174.598 145.543 174.621C127.136 174.644 108.729 174.598 90.2996 174.598ZM196.49 194.314C208.06 194.314 219.631 194.268 231.224 194.36C233.395 194.383 234.157 193.877 234.134 191.553C234.019 176.876 234.019 162.175 234.134 147.497C234.157 145.013 233.326 144.506 231.017 144.506C208.106 144.575 185.196 144.598 162.286 144.506C159.792 144.506 158.938 145.105 158.961 147.704C159.076 162.152 159.099 176.6 158.938 191.024C158.914 193.9 159.861 194.383 162.471 194.36C173.834 194.222 185.173 194.314 196.49 194.314Z" fill="#010101"/>
<path d="M276.334 52.193C265.646 56.3944 256.16 52.0789 253.962 42.0321C252.968 37.5111 254.471 33.5609 256.924 29.8619C266.016 19.975 280.753 24.5874 283.321 36.0269C284.871 42.9455 281.933 48.1743 276.334 52.193ZM263.818 38.8583C263.61 41.6668 265.692 44.0187 268.491 44.1557C271.175 44.2927 273.396 42.329 273.604 39.6575C273.812 36.849 271.73 34.4743 268.931 34.3373C266.317 34.2003 264.003 36.2325 263.818 38.8583Z" fill="#010101"/>
<path d="M83.5593 39.4768C83.4697 43.555 79.5908 45.9086 76.4294 44.091C75.9137 43.8113 75.3532 43.4618 75.0393 42.9724C72.7075 39.4069 70.6224 39.3836 67.9094 42.8326C65.8018 45.4892 62.7974 45.3494 60.7795 43.252C58.7616 41.1547 58.9185 38.335 61.183 35.7716C61.6539 35.2356 62.1247 34.653 62.6853 34.2102C64.3444 32.9052 64.5014 31.9032 62.8198 30.2253C58.9409 26.3569 58.4477 23.677 60.6674 21.2301C62.9992 18.6434 65.757 19.0862 69.591 23.2342C71.2277 25.0053 72.1694 24.749 73.425 23.0711C74.0079 22.3021 74.7254 21.6496 75.4429 21.0204C77.685 19.0629 80.0168 19.0396 82.0796 21.1602C84.1647 23.3041 84.3889 26.1938 82.1468 27.9882C78.1334 31.2274 78.6491 33.6975 82.3262 36.5406C83.2679 37.2164 83.6042 38.5214 83.5593 39.4768Z" fill="#010101"/>
<path d="M117.883 210.748C124.408 208.994 127.828 212.329 130.078 217.613C125.533 216.075 120.988 214.581 117.883 210.748Z" fill="#DFF5C5"/>
<path d="M239.018 64.4436C238.995 67.1664 236.613 69.4087 233.893 69.2714C231.285 69.157 229.262 66.9834 229.262 64.3521C229.285 61.5606 231.555 59.387 234.32 59.5014C236.927 59.6158 239.04 61.8581 239.018 64.4436Z" fill="#010101"/>
<path d="M128.731 29.3419C131.67 29.2922 133.986 31.4058 134.136 34.3399C134.285 37.473 132.068 39.885 128.98 39.9347C125.866 40.0093 123.55 37.6719 123.574 34.5637C123.599 31.6296 125.791 29.3917 128.731 29.3419Z" fill="#010101"/>
<path d="M90.5782 164.566C72.5122 164.566 54.4461 164.52 36.3801 164.635C33.7662 164.658 32.5402 163.992 31.9387 161.351C30.2501 154.163 28.307 147.043 26.3408 139.923C25.67 137.489 25.855 136.134 28.654 135.146C38.647 131.633 48.5243 127.82 58.4248 124.077C60.6223 123.25 62.8661 122.997 65.2025 122.905C87.3629 121.987 109.292 124.008 131.128 127.682C136.079 128.532 138.207 126.649 138.23 121.665C138.253 115.372 138.253 109.057 138.23 102.764C138.23 101.225 138.415 100.1 140.011 99.2271C149.171 94.1515 158.262 88.9611 167.33 83.7478C168.648 82.9899 169.666 82.8521 170.985 83.7937C173.668 85.6999 176.444 87.4683 179.22 89.2367C180.423 89.9946 181.093 91.0281 181.51 92.3831C182.435 95.3917 183.476 98.3543 184.471 101.34C186.368 107.036 186.853 107.38 192.752 107.38C197.031 107.38 201.311 107.472 205.567 107.334C207.672 107.265 209.222 107.885 210.725 109.378C219.886 118.404 219.886 118.105 232.724 116.98C248.269 115.625 263.883 114.683 279.45 113.696C283.059 113.466 287.431 111.422 290.091 113.627C292.451 115.602 292.867 119.897 294.116 123.181C296.73 130.094 299.205 137.053 301.981 143.897C302.906 146.193 302.42 147.433 300.385 148.559C298.581 149.569 296.984 150.97 295.18 151.912C290.924 154.14 287.963 157.171 287.639 162.201C287.5 164.222 286.251 164.612 284.378 164.589C271.933 164.52 259.464 164.497 247.019 164.589C244.776 164.612 244.059 163.923 244.105 161.696C244.22 155.035 244.174 148.375 244.128 141.692C244.105 136.203 242.624 134.733 237.212 134.733C210.101 134.733 183.013 134.733 155.903 134.733C150.606 134.733 149.125 136.18 149.102 141.347C149.079 148.008 148.986 154.691 149.148 161.351C149.218 163.9 148.454 164.612 145.887 164.612C127.45 164.52 109.014 164.566 90.5782 164.566Z" fill="#9CBFE2"/>
<path d="M90.5864 174.595C108.946 174.595 127.305 174.642 145.687 174.526C148.474 174.503 149.488 175.127 149.373 178.109C149.142 184.813 149.258 191.541 149.304 198.245C149.327 202.591 150.893 204.325 155.247 204.325C182.728 204.394 210.209 204.394 237.714 204.325C242.251 204.325 243.864 202.637 243.933 198.013C244.048 191.425 244.071 184.836 243.91 178.248C243.841 175.52 244.44 174.433 247.457 174.48C258.514 174.665 269.595 174.549 280.652 174.572C281.642 174.572 283.047 173.948 283.577 175.196C284.176 176.56 282.909 177.393 282.08 178.248C269.779 190.593 257.478 202.938 245.2 215.282C241.238 219.259 241.077 220.253 243.495 225.177C245.338 228.899 247.227 232.574 249.001 236.296C251.258 241.035 253.516 245.775 257.754 249.127C259.298 250.352 259.229 251.253 257.501 252.386C251.074 256.571 244.716 260.847 238.382 265.17C237.138 266.026 236.354 265.887 235.226 264.962C229.951 260.639 224.652 256.362 219.262 252.178C217.742 250.999 217.742 250.051 218.801 248.595C220.921 245.613 222.948 242.584 224.86 239.463C227.394 235.325 225.459 231.257 220.644 231.187C205.441 231.026 190.238 231.095 175.034 231.141C172.316 231.141 170.657 232.782 169.667 235.325C166.926 242.353 164.046 249.335 161.282 256.362C160.729 257.796 160.038 258.882 158.656 259.668C153.404 262.743 148.175 265.841 143.038 269.077C141.31 270.164 140.504 270.071 139.491 268.153C134.123 258.212 134.054 258.235 142.024 250.236C145.295 246.954 148.543 243.671 151.838 240.411C154.279 237.984 154.464 235.418 152.552 232.528C146.056 222.819 139.583 213.063 133.133 203.307C131.728 201.181 129.977 200.14 127.374 200.163C117.768 200.233 108.162 200.233 98.5566 200.163C96.4834 200.14 94.8249 200.903 93.1433 201.967C81.211 209.48 69.2326 216.947 57.3002 224.483C55.8029 225.431 54.3747 225.986 52.5549 225.963C43.0643 225.893 33.5737 225.893 24.1062 225.94C19.4991 225.963 16.827 222.403 13.4178 220.253C12.3121 219.559 13.7403 218.819 14.224 218.311C17.1034 215.329 20.0059 212.393 22.9775 209.503C25.0276 207.492 25.7187 205.249 24.5899 202.545C24.5439 202.429 24.5669 202.29 24.4978 202.198C17.0343 190.731 25.6265 183.449 31.4084 175.428C32.3759 174.064 33.8271 174.526 35.1171 174.526C53.6146 174.572 72.112 174.595 90.5864 174.595Z" fill="#FDCC55"/>
<path d="M196.266 193.907C184.865 193.907 173.487 193.838 162.085 193.976C159.461 193.999 158.509 193.517 158.533 190.65C158.695 176.242 158.672 161.834 158.556 147.45C158.533 144.834 159.392 144.238 161.9 144.261C184.935 144.353 207.97 144.353 231.005 144.261C233.327 144.261 234.163 144.765 234.139 147.243C234.023 161.88 234.023 176.54 234.139 191.177C234.163 193.494 233.42 193.999 231.214 193.976C219.557 193.861 207.923 193.907 196.266 193.907ZM214.054 149.147C213.31 149.147 212.591 149.147 211.848 149.147C205.508 149.147 204.463 149.996 203.418 156.145C201.979 164.61 200.609 173.076 199.169 181.542C198.472 185.602 199.935 188.332 203.186 188.814C206.228 189.25 208.69 187.208 209.015 183.285C209.293 179.867 210.454 178.789 214.146 178.697C218.396 178.605 218.419 180.899 218.837 183.744C219.348 187.323 221.832 189.296 224.758 188.814C227.707 188.309 229.402 185.625 228.799 182.161C227.22 172.869 225.525 163.578 224.038 154.286C223.435 150.57 221.298 149.124 217.746 149.147C216.492 149.147 215.261 149.147 214.054 149.147ZM193.759 166.423C193.759 162.66 193.805 158.921 193.759 155.158C193.712 151.442 191.831 149.216 188.813 149.216C185.794 149.216 183.89 151.396 183.843 155.135C183.774 160.94 183.843 166.767 183.82 172.571C183.797 179.752 184.401 178.697 177.225 178.926C174.416 179.018 173.649 177.986 173.719 175.347C173.882 168.694 173.812 162.041 173.765 155.365C173.742 151.419 171.768 149.147 168.61 149.239C165.592 149.308 163.711 151.51 163.664 155.25C163.618 162.523 163.548 169.772 163.688 177.045C163.804 183.285 168.169 188.103 174.044 188.814C184.726 190.099 191.39 187.277 193.341 180.532C193.666 179.385 193.735 178.146 193.759 176.953C193.805 173.443 193.759 169.933 193.759 166.423Z" fill="#F9F8F8"/>
<path d="M263.423 39.5502C263.622 36.9607 266.114 34.9164 268.929 35.0527C271.943 35.189 274.185 37.5513 273.961 40.3452C273.737 43.0027 271.345 44.9562 268.455 44.8199C265.441 44.6836 263.199 42.344 263.423 39.5502Z" fill="#DFF5C5"/>
<path d="M214.339 149.151C215.577 149.151 216.814 149.151 218.029 149.151C221.603 149.105 223.775 150.581 224.359 154.316C225.854 163.676 227.559 172.991 229.147 182.328C229.731 185.81 228.049 188.507 225.083 189.015C222.163 189.499 219.664 187.516 219.127 183.919C218.706 181.06 218.683 178.755 214.409 178.847C210.695 178.939 209.527 180.023 209.247 183.458C208.92 187.401 206.444 189.453 203.384 189.015C200.137 188.53 198.666 185.81 199.343 181.706C200.791 173.198 202.169 164.691 203.618 156.183C204.669 150.004 205.72 149.151 212.096 149.151C212.844 149.151 213.591 149.151 214.339 149.151ZM214.362 169.164C216.16 169.602 216.885 169.002 216.301 166.881C215.763 164.921 215.6 162.846 215.296 160.841C215.179 160.126 215.179 159.25 214.245 159.227C213.288 159.181 213.217 160.034 213.101 160.748C212.797 162.777 212.634 164.829 212.096 166.789C211.582 168.772 212.12 169.533 214.362 169.164Z" fill="#010101"/>
<path d="M194.288 166.725C194.288 170.31 194.312 173.895 194.264 177.48C194.241 178.699 194.169 179.964 193.837 181.136C191.816 188.001 185.019 190.907 174.085 189.595C168.072 188.868 163.604 183.947 163.485 177.574C163.366 170.169 163.413 162.741 163.461 155.313C163.485 151.494 165.434 149.244 168.524 149.174C171.756 149.104 173.776 151.423 173.8 155.43C173.848 162.226 173.919 169.021 173.753 175.84C173.681 178.535 174.489 179.589 177.342 179.495C184.686 179.261 184.068 180.339 184.092 173.005C184.115 167.076 184.044 161.124 184.115 155.196C184.163 151.353 186.112 149.127 189.202 149.15C192.292 149.15 194.217 151.423 194.264 155.219C194.336 159.062 194.288 162.882 194.288 166.725Z" fill="#010101"/>
<path d="M213.984 169.395C211.602 169.754 211.007 169.015 211.578 167.09C212.123 165.187 212.297 163.172 212.645 161.225C212.769 160.531 212.843 159.703 213.86 159.747C214.878 159.792 214.878 160.643 214.977 161.314C215.324 163.284 215.473 165.277 216.044 167.179C216.664 169.239 215.895 169.821 213.984 169.395Z" fill="#EDE9E9"/>
</g>
<defs>
<clipPath id="clip0_68_47">
<rect width="313" height="282" fill="white"/>
</clipPath>
</defs>
</svg>
