<svg width="19" height="18" viewBox="0 0 19 18" fill="none" xmlns="http://www.w3.org/2000/svg">
<path d="M6.33335 5.25V11.25C6.33335 12.0784 7.04224 12.75 7.91669 12.75H12.6667M6.33335 5.25V3.75C6.33335 2.92157 7.04224 2.25 7.91669 2.25H11.5471C11.7571 2.25 11.9584 2.32902 12.1069 2.46967L15.6015 5.78033C15.7499 5.92098 15.8334 6.11175 15.8334 6.31066V11.25C15.8334 12.0784 15.1245 12.75 14.25 12.75H12.6667M6.33335 5.25H5.16669C4.06212 5.25 3.16669 6.14543 3.16669 7.25V14.25C3.16669 15.0784 3.87557 15.75 4.75002 15.75H10.6667C11.7713 15.75 12.6667 14.8546 12.6667 13.75V12.75" stroke="#8BC34A" stroke-width="2" stroke-linecap="round" stroke-linejoin="round"/>
</svg>
