<svg width="16" height="16" viewBox="0 0 16 16" fill="none" xmlns="http://www.w3.org/2000/svg">
<rect width="2.33333" height="16" transform="matrix(-1 0 0 1 15 0)" fill="#D92013"/>
<rect width="2.33333" height="7.75758" transform="matrix(-1 0 0 1 12.1666 0)" fill="#D92013"/>
<rect width="2.33333" height="7.75758" transform="matrix(-1 0 0 1 12.1667 8.24243)" fill="#D92013"/>
<rect width="2.26263" height="7.99998" transform="matrix(4.50773e-08 1 1 -4.23869e-08 3.8335 8.24243)" fill="#D92013"/>
<rect width="2.26263" height="7.99998" transform="matrix(4.50773e-08 1 1 -4.23869e-08 3.8335 5.495)" fill="#D92013"/>
<rect width="2.33333" height="7.75758" transform="matrix(-1 0 0 1 6.16663 0)" fill="#D92013"/>
<rect width="2.33333" height="7.75758" transform="matrix(-1 0 0 1 6.16663 8.24243)" fill="#D92013"/>
<rect width="2.33333" height="16" transform="matrix(-1 0 0 1 3.33337 0)" fill="#D92013"/>
</svg>
