<svg width="34" height="34" viewBox="0 0 34 34" fill="none" xmlns="http://www.w3.org/2000/svg">
<path d="M16.9987 0.333496C7.7987 0.333496 0.332031 7.80016 0.332031 17.0002C0.332031 26.2002 7.7987 33.6668 16.9987 33.6668C26.1987 33.6668 33.6654 26.2002 33.6654 17.0002C33.6654 7.80016 26.1987 0.333496 16.9987 0.333496ZM24.732 11.6668C24.482 14.3002 23.3987 20.7002 22.8487 23.6502C22.6154 24.9002 22.1487 25.3168 21.7154 25.3668C20.7487 25.4502 20.0154 24.7335 19.082 24.1168C17.6154 23.1502 16.782 22.5502 15.3654 21.6168C13.7154 20.5335 14.782 19.9335 15.732 18.9668C15.982 18.7168 20.2487 14.8335 20.332 14.4835C20.3436 14.4305 20.3421 14.3754 20.3275 14.3232C20.313 14.2709 20.286 14.2229 20.2487 14.1835C20.1487 14.1002 20.0154 14.1335 19.8987 14.1502C19.7487 14.1835 17.4154 15.7335 12.8654 18.8002C12.1987 19.2502 11.5987 19.4835 11.0654 19.4668C10.4654 19.4502 9.33203 19.1335 8.48203 18.8502C7.43203 18.5168 6.61536 18.3335 6.68203 17.7502C6.71536 17.4502 7.13203 17.1502 7.91536 16.8335C12.782 14.7168 16.0154 13.3168 17.632 12.6502C22.2654 10.7168 23.2154 10.3835 23.8487 10.3835C23.982 10.3835 24.2987 10.4168 24.4987 10.5835C24.6654 10.7168 24.7154 10.9002 24.732 11.0335C24.7154 11.1335 24.7487 11.4335 24.732 11.6668Z" fill="white" fill-opacity="0.7"/>
</svg>
