<?xml version="1.0" encoding="utf-8"?>
<!-- Generator: Adobe Illustrator 19.0.0, SVG Export Plug-In . SVG Version: 6.00 Build 0)  -->
<svg width="34" height="34" id="Layer_1" xmlns="http://www.w3.org/2000/svg" xmlns:xlink="http://www.w3.org/1999/xlink" x="0px" y="0px"
	 viewBox="0 0 512 512" style="enable-background:new 0 0 512 512;" xml:space="preserve">
<g id="XMLID_1_">
	<path id="XMLID_8_" d="M256,0C114.5,0,0,114.5,0,256s114.5,256,256,256s256-114.5,256-256S397.5,0,256,0z M243.9,135
		c1.9-1.9,3.7-1.9,11.2-1.9c3.7,0,9.3,0.9,12.1,0.9c14.9,1.9,27.9,5.6,41,12.1s21.4,13,33.5,24.2c10.2,10.2,16.8,18.6,22.3,30.7
		c8.4,17.7,14,38.2,14,60.5c0,7.4,0,9.3-1.9,12.1c-3.7,4.7-11.2,3.7-13-0.9c-0.9-1.9-0.9-2.8-0.9-9.3c0-9.3-0.9-15.8-2.8-23.3
		c-5.6-28.9-18.6-52.1-41-68.9c-18.6-14-37.2-20.5-62.4-22.3c-8.4-0.9-10.2-0.9-12.1-1.9C241.1,145.2,240.2,138.7,243.9,135z
		 M297,192.7c-9.3-5.6-22.3-9.3-34.4-10.2c-4.7,0-6.5-0.9-8.4-2.8c-2.8-2.8-2.8-6.5-0.9-10.2c1.9-3.7,5.6-3.7,16.8-2.8
		c27,3.7,47.5,16.8,61.4,36.3c7.4,11.2,12.1,25.1,14,39.1c0.9,5.6,0.9,14.9,0,16.8c-0.9,1.9-2.8,3.7-3.7,4.7c-1.9,0.9-5.6,0.9-7.4,0
		c-3.7-1.9-4.7-4.7-4.7-12.1c0-11.2-2.8-23.3-8.4-32.6C315.6,207.6,307.2,198.3,297,192.7z M311.9,251.3c-2.8,2.8-7.4,2.8-10.2,0
		c-1.9-1.9-2.8-3.7-3.7-7.4c-0.9-6.5-1.9-10.2-3.7-14c-3.7-8.4-11.2-13-22.3-14c-5.6-0.9-7.4-0.9-9.3-3.7
		c-2.8-3.7-1.9-10.2,2.8-12.1c1.9-0.9,2.8-0.9,6.5-0.9c1.9,0,5.6,0.9,7.4,0.9c8.4,1.9,15.8,5.6,21.4,10.2c7.4,6.5,11.2,15.8,13,27.9
		C315.6,245.8,314.6,248.6,311.9,251.3z M377.9,367.7c-3.7,8.4-15.8,24.2-25.1,30.7c-8.4,6.5-14,8.4-21.4,8.4c-6.5,0-8.4,0-16.8-3.7
		c-62.4-26.1-111.7-64.2-151.7-116.4c-20.5-27.9-36.3-55.9-47.5-85.6c-6.5-17.7-6.5-25.1-1.9-33.5c1.9-3.7,12.1-13,18.6-17.7
		c11.2-8.4,16.8-12.1,20.5-12.1c2.8-0.9,7.4,0,11.2,0.9c1.9,0.9,3.7,1.9,5.6,2.8c8.4,5.6,31.7,35.4,39.1,50.3
		c4.7,8.4,5.6,14.9,4.7,19.5c-1.9,4.7-3.7,7.4-14,15.8c-4.7,3.7-8.4,6.5-8.4,7.4c-1.9,1.9-2.8,6.5-2.8,10.2
		c0,7.4,4.7,20.5,11.2,30.7c4.7,8.4,14,18.6,22.3,26.1c10.2,9.3,19.5,15.8,28.9,20.5c13,6.5,20.5,8.4,27,5.6
		c1.9-0.9,2.8-1.9,3.7-1.9c0,0,3.7-4.7,7.4-9.3c7.4-9.3,8.4-10.2,14-12.1c6.5-1.9,13-1.9,18.6,1.9c4.7,2.8,15.8,9.3,22.3,14
		c9.3,6.5,27.9,22.3,30.7,25.1C380.7,352.8,381.7,360.3,377.9,367.7z" fill="white" fill-opacity="0.7"/>
</g>
</svg>
