<svg width="51" height="43" viewBox="0 0 51 43" fill="none" xmlns="http://www.w3.org/2000/svg">
<path d="M0 42.5945L1.15123 34.3418C3.68984 34.5193 5.66759 34.046 7.08449 32.922C8.50138 31.798 9.44598 30.2303 9.91828 28.2189C10.3906 26.2074 10.4791 23.9298 10.1839 21.386H0V0H19.5709V23.1608C19.5709 30.1415 17.8883 35.4067 14.5232 38.9562C11.2171 42.5058 6.37604 43.7185 0 42.5945Z" fill="#8BC34A"/>
<path d="M30.895 42.5945L32.0462 34.3418C34.5848 34.5193 36.5626 34.046 37.9795 32.922C39.3964 31.798 40.341 30.2303 40.8133 28.2189C41.2856 26.2074 41.3741 23.9298 41.0789 21.386H30.895V0H50.4659V23.1608C50.4659 30.1415 48.7833 35.4067 45.4182 38.9562C42.1121 42.5058 37.271 43.7185 30.895 42.5945Z" fill="#8BC34A"/>
</svg>
