<?xml version="1.0" encoding="iso-8859-1"?>
<!-- Uploaded to: SVG Repo, www.svgrepo.com, Generator: SVG Repo Mixer Tools -->
<svg version="1.1" id="Layer_1" xmlns="http://www.w3.org/2000/svg" xmlns:xlink="http://www.w3.org/1999/xlink" 
	 viewBox="0 0 512 512" xml:space="preserve">
<rect class="test" x="158.026" y="10.199" style="fill:#F15A24;" width="317.42" height="374.719"/>
<rect x="203.862" y="56.036" style="fill:#FBB03B;" width="225.749" height="225.749"/>
<rect x="36.555" y="127.082" style="fill:#F15A24;" width="317.42" height="374.719"/>
<rect x="82.389" y="172.917" style="fill:#FBB03B;" width="225.749" height="225.749"/>
<path d="M475.445,0H158.023c-5.633,0-10.199,4.566-10.199,10.199v106.686H36.555c-5.633,0-10.199,4.566-10.199,10.199v374.717
	c0,5.633,4.566,10.199,10.199,10.199h317.422c5.633,0,10.199-4.566,10.199-10.199V395.115h111.269
	c5.633,0,10.199-4.566,10.199-10.199V10.199C485.644,4.566,481.078,0,475.445,0z M343.777,491.602H46.754V137.283h297.023V491.602z
	 M353.977,116.885H214.06V66.236h205.349v205.349h-55.233v-144.5C364.176,121.451,359.61,116.885,353.977,116.885z M465.246,374.717
	h-101.07v-82.734h65.432c5.633,0,10.199-4.566,10.199-10.199V56.036c0-5.633-4.566-10.199-10.199-10.199H203.861
	c-5.633,0-10.199,4.566-10.199,10.199v60.848h-25.439V20.398h297.023V374.717z"/>
<path d="M82.392,408.867h225.747c5.633,0,10.199-4.566,10.199-10.199V172.92c0-5.633-4.566-10.199-10.199-10.199H82.392
	c-5.633,0-10.199,4.566-10.199,10.199v225.747C72.193,404.301,76.759,408.867,82.392,408.867z M92.591,183.12H297.94v205.349H92.591
	V183.12z"/>
<path d="M120.208,304.815c-5.633,0-10.199,4.566-10.199,10.199v8.022c0,5.633,4.566,10.199,10.199,10.199
	c5.633,0,10.199-4.566,10.199-10.199v-8.022C130.407,309.382,125.841,304.815,120.208,304.815z"/>
<path d="M120.208,200.537c-5.633,0-10.199,4.566-10.199,10.199v67.609c0,5.633,4.566,10.199,10.199,10.199
	c5.633,0,10.199-4.566,10.199-10.199v-67.609C130.407,205.103,125.841,200.537,120.208,200.537z"/>
</svg>