<svg width="548" height="487" viewBox="0 0 548 487" fill="none" xmlns="http://www.w3.org/2000/svg">
<rect x="164.911" y="335.987" width="217" height="143" fill="#D2E0F4"/>
<path d="M273.411 318.887C233.911 318.887 194.411 318.887 154.911 318.887C148.011 318.887 147.911 318.987 147.911 325.887C147.911 350.887 147.811 375.887 148.011 400.887C148.011 405.787 146.811 407.587 141.611 407.287C127.011 406.587 112.311 408.087 97.811 405.287C45.611 395.187 5.91103 351.087 0.61103 298.287C-5.98897 233.987 41.611 173.687 107.911 166.887C111.711 166.487 111.411 164.787 110.311 162.287C107.011 154.387 105.211 146.187 104.411 137.587C99.911 92.3874 137.011 51.0874 182.411 50.6874C208.011 50.4874 229.111 59.8874 245.911 78.9874C248.611 81.9874 249.411 80.5874 250.611 77.9874C263.311 49.7874 283.511 28.6874 310.811 14.1874C356.911 -10.4126 419.411 -2.31264 457.711 32.9874C481.711 55.0874 496.211 82.0874 500.611 114.287C503.611 136.187 500.811 157.487 492.811 177.987C491.011 182.687 491.811 184.887 495.711 187.787C530.311 212.687 548.511 246.687 547.711 289.287C546.511 351.087 499.911 398.387 444.011 406.087C430.611 407.987 417.011 406.587 403.611 407.187C400.211 407.287 399.811 405.387 399.811 402.787C399.811 394.787 399.811 386.787 399.811 378.787C399.811 360.987 399.811 343.087 399.811 325.287C399.811 319.087 399.511 318.787 393.311 318.787C353.311 318.887 313.311 318.887 273.411 318.887ZM380.911 206.787C379.911 203.887 378.211 202.787 376.711 201.387C360.211 185.887 343.711 170.387 327.111 154.887C310.511 139.287 293.811 123.687 277.211 107.987C274.911 105.787 273.411 105.087 270.711 107.687C252.511 124.987 234.211 142.287 215.811 159.387C203.311 171.087 190.611 182.687 178.111 194.387C174.211 197.987 170.511 201.787 165.811 206.287C168.511 206.487 169.411 206.587 170.411 206.587C186.211 206.587 202.111 206.587 217.911 206.587C224.711 206.587 224.811 206.687 224.811 213.687C224.811 233.487 224.811 253.387 224.811 273.187C224.811 280.487 224.811 280.487 231.911 280.487C246.611 280.487 261.211 280.487 275.911 280.487C289.711 280.487 303.611 280.387 317.411 280.587C321.511 280.687 323.311 279.287 322.911 275.087C322.711 272.287 322.911 269.387 322.911 266.587C322.911 248.387 323.011 230.287 322.811 212.087C322.811 207.987 324.111 206.287 328.311 206.587C333.111 206.887 338.011 206.687 342.811 206.687C355.311 206.787 367.811 206.787 380.911 206.787Z" fill="#DFF5C5"/>
<path d="M273.911 486.287C237.411 486.287 200.911 486.187 164.411 486.387C159.411 486.387 157.711 485.087 157.711 479.987C157.911 431.487 157.811 382.987 157.811 334.487C157.811 328.387 158.211 327.987 164.311 327.987C237.311 327.987 310.311 327.987 383.311 327.987C389.511 327.987 389.811 328.287 389.811 334.487C389.811 382.987 389.811 431.487 389.911 479.987C389.911 485.187 388.211 486.387 383.211 486.387C346.911 486.187 310.411 486.287 273.911 486.287ZM273.811 472.587C305.611 472.587 337.411 472.587 369.311 472.587C375.911 472.587 375.911 472.587 375.911 465.887C375.911 426.887 375.911 387.887 375.911 348.987C375.911 342.087 375.911 341.987 368.911 341.987C305.611 341.987 242.311 341.987 179.011 341.987C172.011 341.987 171.911 342.087 171.911 348.887C171.911 387.987 172.011 427.187 171.811 466.287C171.811 471.387 173.411 472.787 178.411 472.687C210.211 472.487 242.011 472.587 273.811 472.587Z" fill="black"/>
<path d="M274.011 462.187C246.211 462.187 218.311 462.187 190.511 462.187C182.411 462.187 182.511 462.187 182.511 453.887C182.511 447.087 182.911 440.187 184.611 433.587C191.511 408.087 216.411 400.187 236.711 417.187C240.211 420.087 241.711 419.987 244.411 416.687C249.311 410.587 254.711 404.987 260.011 399.087C264.911 393.587 264.911 393.587 271.111 397.987C276.711 401.987 282.311 405.787 287.711 409.987C290.611 412.287 292.211 412.187 294.311 408.887C303.811 393.487 313.611 378.187 323.311 362.787C326.111 358.387 326.611 358.387 329.011 362.887C340.611 384.787 352.211 406.787 363.911 428.687C365.011 430.787 365.311 433.087 365.311 435.387C365.311 442.587 365.111 449.687 365.411 456.887C365.611 460.987 364.311 462.287 360.111 462.287C331.411 462.187 302.711 462.187 274.011 462.187Z" fill="#585858"/>
<path d="M212.911 352.587C224.811 352.587 233.711 361.287 233.711 372.887C233.711 384.187 224.711 393.187 213.411 393.287C201.811 393.387 192.611 384.387 192.611 372.887C192.611 361.487 201.511 352.587 212.911 352.587Z" fill="#FDCC55"/>
</svg>
